<svg width="40" height="40" viewBox="0 0 40 40" fill="none" xmlns="http://www.w3.org/2000/svg">
<path fill-rule="evenodd" clip-rule="evenodd" d="M24.1602 29.6094C24.4023 29.8555 24.7227 29.9766 25.043 29.9766C25.3633 29.9766 25.6836 29.8555 25.9297 29.6094L34.6406 20.8789C35.1289 20.3906 35.1289 19.6016 34.6406 19.1133L25.9297 10.3867C25.4414 9.89844 24.6484 9.89844 24.1602 10.3867C23.6719 10.875 23.6719 11.668 24.1602 12.1563L30.7797 18.789H16.3086C15.6172 18.789 15.0586 19.3476 15.0586 20.039C15.0586 20.7304 15.6172 21.289 16.3086 21.289H30.7012L24.1602 27.8398C23.6719 28.332 23.6719 29.1211 24.1602 29.6094ZM5.01953 20C5.01953 20.3315 5.15123 20.6494 5.38565 20.8838C5.62007 21.1183 5.93801 21.25 6.26953 21.25C6.60105 21.25 6.91899 21.1183 7.15341 20.8838C7.38784 20.6494 7.51953 20.3315 7.51953 20C7.51953 19.6684 7.38784 19.3505 7.15341 19.1161C6.91899 18.8817 6.60105 18.75 6.26953 18.75C5.93801 18.75 5.62007 18.8817 5.38565 19.1161C5.15123 19.3505 5.01953 19.6684 5.01953 20ZM10.3856 20.8838C10.1512 20.6494 10.0195 20.3315 10.0195 20C10.0195 19.6684 10.1512 19.3505 10.3856 19.1161C10.6201 18.8817 10.938 18.75 11.2695 18.75C11.6011 18.75 11.919 18.8817 12.1534 19.1161C12.3878 19.3505 12.5195 19.6684 12.5195 20C12.5195 20.3315 12.3878 20.6494 12.1534 20.8838C11.919 21.1183 11.6011 21.25 11.2695 21.25C10.938 21.25 10.6201 21.1183 10.3856 20.8838Z" fill="#FF9500"/>
</svg>
