<svg width="42" height="30" viewBox="0 0 42 30" fill="none" xmlns="http://www.w3.org/2000/svg">
<g id="3 1" clip-path="url(#clip0_74_3)">
<g id="&#233;&#161;&#181;&#233;&#157;&#162;-1">
<g id="&#231;&#148;&#187;&#230;&#157;&#191;&#229;&#164;&#135;&#228;&#187;&#189;-4">
<g id="3">
<g id="&#231;&#188;&#150;&#231;&#187;&#132;-7">
<path id="&#229;&#189;&#162;&#231;&#138;&#182;&#231;&#187;&#147;&#229;&#144;&#136;" fill-rule="evenodd" clip-rule="evenodd" d="M14.1844 0.0588793C16.1073 0.0254591 17.6933 1.54689 17.7268 3.45708C17.7584 5.25743 16.3996 6.76057 14.6333 6.95548C12.8129 7.61002 11.5558 8.4118 10.8646 9.36286C10.1733 10.3139 9.78707 11.9339 9.70588 14.2229C9.75132 16.8153 7.67255 18.9537 5.06281 18.999C2.45307 19.0444 0.300618 16.9796 0.25517 14.3872C0.209723 11.7948 2.28849 9.65643 4.89823 9.61108C5.04145 9.60859 5.18328 9.61245 5.32347 9.62241C6.93039 9.5344 8.27226 9.01187 9.3494 8.05609C10.4302 7.09702 10.9335 5.79882 10.8591 4.16148L10.8631 4.34588C10.8022 4.09947 10.7678 3.84251 10.7632 3.57811C10.7297 1.66791 12.2614 0.0922995 14.1844 0.0588793Z" fill="#FF9500"/>
<path id="&#229;&#189;&#162;&#231;&#138;&#182;&#231;&#187;&#147;&#229;&#144;&#136;_2" fill-rule="evenodd" clip-rule="evenodd" d="M5.06935 10.2426C7.67909 10.288 9.75786 12.4263 9.71241 15.0187C9.70411 15.4924 9.62545 15.9485 9.48651 16.3773L9.56787 16.3136C9.52891 17.7097 9.87681 18.948 10.6116 20.0286C11.3463 21.1093 12.3917 21.6365 13.7478 21.6104L13.6668 21.6093C13.9596 21.5511 14.2631 21.5231 14.5739 21.5285C16.9089 21.5691 18.7688 23.4823 18.7282 25.8018C18.6875 28.1214 16.7616 29.9688 14.4266 29.9282C12.0916 29.8877 10.2316 27.9744 10.2723 25.6549C10.2802 25.2039 10.3594 24.7707 10.499 24.3658L10.5528 24.2203C10.4506 22.9459 10.0113 21.9418 9.23482 21.2079C8.45836 20.474 7.15115 19.944 5.3132 19.6178L5.32266 19.6197C5.18486 19.6293 5.04548 19.633 4.90477 19.6306C2.29503 19.5852 0.216257 17.4469 0.261704 14.8545C0.307152 12.2621 2.45961 10.1973 5.06935 10.2426Z" fill="#3490E6"/>
</g>
<g id="&#231;&#188;&#150;&#231;&#187;&#132;-7_2">
<path id="&#229;&#189;&#162;&#231;&#138;&#182;&#231;&#187;&#147;&#229;&#144;&#136;_3" fill-rule="evenodd" clip-rule="evenodd" d="M36.9307 19.7574C34.3209 19.712 32.2421 17.5737 32.2876 14.9813C32.2959 14.5076 32.3745 14.0515 32.5135 13.6227L32.4321 13.6864C32.4711 12.2903 32.1232 11.052 31.3884 9.97136C30.6537 8.89074 29.6083 8.3635 28.2522 8.38962L28.3332 8.39073C28.0404 8.44887 27.7369 8.47691 27.4261 8.47151C25.0911 8.43092 23.2312 6.51768 23.2718 4.19815C23.3125 1.87863 25.2384 0.031179 27.5734 0.0717607C29.9084 0.112342 31.7684 2.02559 31.7277 4.34511C31.7198 4.79613 31.6406 5.2293 31.501 5.63421L31.4472 5.77971C31.5494 7.0541 31.9887 8.05824 32.7652 8.79211C33.5416 9.52598 34.8489 10.056 36.6868 10.3822L36.6773 10.3803C36.8151 10.3707 36.9545 10.367 37.0952 10.3694C39.705 10.4148 41.7837 12.5531 41.7383 15.1455C41.6928 17.7379 39.5404 19.8027 36.9307 19.7574Z" fill="#3490E6"/>
<path id="&#229;&#189;&#162;&#231;&#138;&#182;&#231;&#187;&#147;&#229;&#144;&#136;_4" fill-rule="evenodd" clip-rule="evenodd" d="M27.8156 29.9411C25.8927 29.9745 24.3067 28.4531 24.2732 26.5429C24.2416 24.7426 25.6004 23.2394 27.3667 23.0445C29.1871 22.39 30.4442 21.5882 31.1354 20.6371C31.8267 19.6861 32.2129 18.0661 32.2941 15.7771C32.2487 13.1847 34.3274 11.0463 36.9372 11.001C39.5469 10.9556 41.6994 13.0204 41.7448 15.6128C41.7903 18.2052 39.7115 20.3436 37.1018 20.3889C36.9586 20.3914 36.8167 20.3875 36.6765 20.3776C35.0696 20.4656 33.7277 20.9881 32.6506 21.9439C31.5698 22.903 31.0665 24.2012 31.1409 25.8385L31.1369 25.6541C31.1978 25.9005 31.2322 26.1575 31.2368 26.4219C31.2703 28.3321 29.7386 29.9077 27.8156 29.9411Z" fill="#FF9500"/>
</g>
</g>
</g>
</g>
</g>
<defs>
<clipPath id="clip0_74_3">
<rect width="42" height="30" fill="white"/>
</clipPath>
</defs>
</svg>
