<svg width="50" height="50" viewBox="0 0 50 50" fill="none" xmlns="http://www.w3.org/2000/svg">
<path d="M1 25C1 11.7452 11.7452 1 25 1C38.2548 1 49 11.7452 49 25C49 38.2548 38.2548 49 25 49C11.7452 49 1 38.2548 1 25Z" fill="#0A0C14" stroke="#3C3C3C" stroke-width="2"/>
<g clip-path="url(#clip0_98_81)">
<path d="M27.0295 23.7381L34.9713 14.3333H33.0893L26.1935 22.4994L20.6858 14.3333H14.3333L22.662 26.6818L14.3333 36.5441H16.2153L23.4975 27.9205L29.3141 36.5441H35.6666L27.029 23.7381H27.0295ZM24.4517 26.7906L23.6079 25.561L16.8934 15.7767H19.7842L25.2028 23.6729L26.0467 24.9025L33.0902 35.1664H30.1995L24.4517 26.7911V26.7906Z" fill="white"/>
</g>
<defs>
<clipPath id="clip0_98_81">
<rect width="21.3333" height="22.2222" fill="white" transform="translate(14.3333 14.3333)"/>
</clipPath>
</defs>
</svg>
